<mxfile host="app.diagrams.net" modified="2022-03-03T19:44:23.169Z" agent="5.0 (Windows)" etag="z3K0xrPlyqGk1hXSO4Ws" version="16.6.5" type="github">
  <diagram id="28-0HsFKR6HrMsf2xm_Q" name="Page-1">
    <mxGraphModel dx="868" dy="450" grid="1" gridSize="10" guides="1" tooltips="1" connect="1" arrows="1" fold="1" page="1" pageScale="1" pageWidth="1169" pageHeight="827" math="0" shadow="0">
      <root>
        <mxCell id="0" />
        <mxCell id="1" parent="0" />
        <mxCell id="5onIcEJ5wdBuwz5WL-kx-5" style="edgeStyle=orthogonalEdgeStyle;rounded=0;orthogonalLoop=1;jettySize=auto;html=1;fontSize=27;entryX=0.5;entryY=0;entryDx=0;entryDy=0;" edge="1" parent="1" source="5onIcEJ5wdBuwz5WL-kx-2" target="5onIcEJ5wdBuwz5WL-kx-8">
          <mxGeometry relative="1" as="geometry">
            <mxPoint x="180" y="270" as="targetPoint" />
            <Array as="points">
              <mxPoint x="244" y="240" />
              <mxPoint x="130" y="240" />
            </Array>
          </mxGeometry>
        </mxCell>
        <mxCell id="5onIcEJ5wdBuwz5WL-kx-2" value="" style="rounded=0;whiteSpace=wrap;html=1;fontSize=24;fillColor=#dae8fc;strokeColor=#6c8ebf;" vertex="1" parent="1">
          <mxGeometry x="224" y="180" width="40" height="30" as="geometry" />
        </mxCell>
        <mxCell id="5onIcEJ5wdBuwz5WL-kx-7" style="edgeStyle=orthogonalEdgeStyle;rounded=0;orthogonalLoop=1;jettySize=auto;html=1;fontSize=27;entryX=0.5;entryY=0;entryDx=0;entryDy=0;" edge="1" parent="1" source="5onIcEJ5wdBuwz5WL-kx-3" target="5onIcEJ5wdBuwz5WL-kx-10">
          <mxGeometry relative="1" as="geometry">
            <mxPoint x="440" y="270" as="targetPoint" />
            <Array as="points">
              <mxPoint x="317" y="240" />
              <mxPoint x="440" y="240" />
            </Array>
          </mxGeometry>
        </mxCell>
        <mxCell id="5onIcEJ5wdBuwz5WL-kx-3" value="" style="rounded=0;whiteSpace=wrap;html=1;fontSize=24;fillColor=#d5e8d4;strokeColor=#82b366;" vertex="1" parent="1">
          <mxGeometry x="297" y="180" width="40" height="30" as="geometry" />
        </mxCell>
        <mxCell id="5onIcEJ5wdBuwz5WL-kx-6" style="edgeStyle=orthogonalEdgeStyle;rounded=0;orthogonalLoop=1;jettySize=auto;html=1;fontSize=27;" edge="1" parent="1" source="5onIcEJ5wdBuwz5WL-kx-4" target="5onIcEJ5wdBuwz5WL-kx-9">
          <mxGeometry relative="1" as="geometry">
            <mxPoint x="280" y="270" as="targetPoint" />
          </mxGeometry>
        </mxCell>
        <mxCell id="5onIcEJ5wdBuwz5WL-kx-4" value="" style="rounded=0;whiteSpace=wrap;html=1;fontSize=24;fillColor=#f8cecc;strokeColor=#b85450;" vertex="1" parent="1">
          <mxGeometry x="270" y="180" width="20" height="30" as="geometry" />
        </mxCell>
        <mxCell id="5onIcEJ5wdBuwz5WL-kx-1" value="&lt;font style=&quot;font-size: 27px&quot;&gt;0 8 C 1 2 &amp;nbsp; Biopsies ostéoarticulaires&lt;/font&gt;" style="text;whiteSpace=wrap;html=1;" vertex="1" parent="1">
          <mxGeometry x="224" y="172.5" width="445" height="45" as="geometry" />
        </mxCell>
        <mxCell id="5onIcEJ5wdBuwz5WL-kx-8" value="&lt;font style=&quot;font-size: 14px;&quot;&gt;Numéro de CMD&lt;/font&gt;" style="rounded=0;whiteSpace=wrap;html=1;fontSize=14;fillColor=#dae8fc;strokeColor=#6c8ebf;" vertex="1" parent="1">
          <mxGeometry x="90" y="270" width="80" height="110" as="geometry" />
        </mxCell>
        <mxCell id="5onIcEJ5wdBuwz5WL-kx-9" value="&lt;font style=&quot;font-size: 15px&quot;&gt;C = chir. avec acte opératoire&lt;br style=&quot;font-size: 15px&quot;&gt;K = acte non op.&lt;br style=&quot;font-size: 15px&quot;&gt;M = médical&lt;br style=&quot;font-size: 15px&quot;&gt;Z = indifférencié&lt;br style=&quot;font-size: 15px&quot;&gt;&lt;/font&gt;" style="rounded=0;whiteSpace=wrap;html=1;fontSize=15;fillColor=#f8cecc;strokeColor=#b85450;" vertex="1" parent="1">
          <mxGeometry x="190" y="270" width="180" height="110" as="geometry" />
        </mxCell>
        <mxCell id="5onIcEJ5wdBuwz5WL-kx-10" value="Numéro de référence" style="rounded=0;whiteSpace=wrap;html=1;fontSize=14;fillColor=#d5e8d4;strokeColor=#82b366;" vertex="1" parent="1">
          <mxGeometry x="390" y="270" width="100" height="110" as="geometry" />
        </mxCell>
      </root>
    </mxGraphModel>
  </diagram>
</mxfile>
